<svg version="1.1" xmlns="http://www.w3.org/2000/svg" xmlns:xlink="http://www.w3.org/1999/xlink" x="0px" y="0px" viewBox="0 0 250 250" style="enable-background:new 0 0 250 250;" xml:space="preserve">
  <g id="Scraps" class="st0"> </g>
  <g id="Artwork">
    <g>
      <g>
        <circle fill="#ffffff" class="st18" cx="125" cy="125" r="125"></circle>
        <rect fill="#ffffff" class="st18" x="" y="0" width="250" height="250" rx="40"></rect>
      </g>
      <g>
        <circle fill="#003366" class="st4" cx="125" cy="64.18" r="16.88"></circle>
      </g>
      <g>
        <path fill="#003366" class="st4" d="M142.62,112.18l37.01-10.2c4.81-1.33,7.62-6.26,6.28-11.01v0c-1.34-4.76-6.33-7.54-11.13-6.21l-40.6,11.3
				c-5.97,1.92-12.4,1.92-18.37,0l-40.59-11.3c-4.81-1.33-9.79,1.46-11.13,6.21l0,0c-1.34,4.76,1.47,9.69,6.28,11.01l37.01,10.2
				c2.94,0.81,4.98,3.46,4.98,6.49v12.18c0,5.94-1.34,11.81-3.94,17.17l-19.86,41.1c-2.15,4.46-0.25,9.79,4.26,11.92h0
				c4.5,2.13,9.9,0.24,12.05-4.21l20.05-41.5l20.2,41.5c2.15,4.46,7.55,6.34,12.05,4.21h0c4.5-2.13,6.41-7.47,4.26-11.92
				l-19.86-41.1c-2.59-5.36-3.94-11.23-3.94-17.17v-12.18C137.64,115.65,139.68,113,142.62,112.18z"></path>
      </g>
    </g>
  </g>
</svg>
